<?xml version="1.0" encoding="UTF-8" standalone="no"?>
<svg
   xmlns:dc="http://purl.org/dc/elements/1.1/"
   xmlns:cc="http://creativecommons.org/ns#"
   xmlns:rdf="http://www.w3.org/1999/02/22-rdf-syntax-ns#"
   xmlns:svg="http://www.w3.org/2000/svg"
   xmlns="http://www.w3.org/2000/svg"
   xmlns:sodipodi="http://sodipodi.sourceforge.net/DTD/sodipodi-0.dtd"
   xmlns:inkscape="http://www.inkscape.org/namespaces/inkscape"
   version="1.1"
   width="16"
   height="16"
   viewBox="0 0 16 16"
   class="octicon octicon-north-star"
   aria-label="The North Star icon"
   role="img"
   id="svg4"
   sodipodi:docname="Arctic_neg.svg"
   inkscape:version="1.0.2 (e86c870879, 2021-01-15, custom)">
  <metadata
     id="metadata10">
    <rdf:RDF>
      <cc:Work
         rdf:about="">
        <dc:format>image/svg+xml</dc:format>
        <dc:type
           rdf:resource="http://purl.org/dc/dcmitype/StillImage" />
        <dc:title></dc:title>
      </cc:Work>
    </rdf:RDF>
  </metadata>
  <defs
     id="defs8" />
  <sodipodi:namedview
     pagecolor="#ffffff"
     bordercolor="#666666"
     borderopacity="1"
     objecttolerance="10"
     gridtolerance="10"
     guidetolerance="10"
     inkscape:pageopacity="0"
     inkscape:pageshadow="2"
     inkscape:window-width="748"
     inkscape:window-height="840"
     id="namedview6"
     showgrid="false"
     inkscape:zoom="33.625"
     inkscape:cx="8"
     inkscape:cy="8"
     inkscape:window-x="2252"
     inkscape:window-y="69"
     inkscape:window-maximized="0"
     inkscape:current-layer="svg4" />
  <path
     d="M 8.5000001,0.75000002 A 0.75000005,0.75000005 0 0 0 7,0.75000002 V 5.94 L 4.391,3.33 A 0.75000001,0.75 0 1 0 3.3310001,4.391 L 5.939,7 H 0.75000001 a 0.75000001,0.75 0 0 0 0,1.5 H 5.9400001 L 3.33,11.109 a 0.75000001,0.75 0 1 0 1.061,1.06 L 7,9.561 v 5.189 a 0.75000005,0.75000005 0 0 0 1.5000001,0 V 9.56 L 11.109,12.17 a 0.75000001,0.75 0 1 0 1.06,-1.061 L 9.561,8.5 h 5.189 a 0.75000001,0.75 0 0 0 0,-1.5 H 9.56 L 12.17,4.391 A 0.75000001,0.75 0 0 0 11.109,3.331 L 8.5000001,5.939 Z"
     id="path2"
     style="stroke-width:0.999999;fill:#ffffff" />
</svg>
