<?xml version="1.0" encoding="UTF-8" standalone="no"?>
<svg
   xmlns:dc="http://purl.org/dc/elements/1.1/"
   xmlns:cc="http://creativecommons.org/ns#"
   xmlns:rdf="http://www.w3.org/1999/02/22-rdf-syntax-ns#"
   xmlns:svg="http://www.w3.org/2000/svg"
   xmlns="http://www.w3.org/2000/svg"
   xmlns:sodipodi="http://sodipodi.sourceforge.net/DTD/sodipodi-0.dtd"
   xmlns:inkscape="http://www.inkscape.org/namespaces/inkscape"
   version="1.1"
   width="16"
   height="16"
   viewBox="0 0 16 16"
   class="octicon octicon-cpu"
   aria-label="The Developer Program icon"
   role="img"
   id="svg40"
   sodipodi:docname="Developer_neg.svg"
   inkscape:version="1.0.2 (e86c870879, 2021-01-15, custom)">
  <metadata
     id="metadata46">
    <rdf:RDF>
      <cc:Work
         rdf:about="">
        <dc:format>image/svg+xml</dc:format>
        <dc:type
           rdf:resource="http://purl.org/dc/dcmitype/StillImage" />
        <dc:title></dc:title>
      </cc:Work>
    </rdf:RDF>
  </metadata>
  <defs
     id="defs44" />
  <sodipodi:namedview
     pagecolor="#ffffff"
     bordercolor="#666666"
     borderopacity="1"
     objecttolerance="10"
     gridtolerance="10"
     guidetolerance="10"
     inkscape:pageopacity="0"
     inkscape:pageshadow="2"
     inkscape:window-width="934"
     inkscape:window-height="1008"
     id="namedview42"
     showgrid="false"
     inkscape:zoom="36.125"
     inkscape:cx="8"
     inkscape:cy="8"
     inkscape:window-x="2060"
     inkscape:window-y="0"
     inkscape:window-maximized="0"
     inkscape:current-layer="svg40" />
  <path
     fill-rule="evenodd"
     d="M6.5.75a.75.75 0 00-1.5 0V2H3.75A1.75 1.75 0 002 3.75V5H.75a.75.75 0 000 1.5H2v3H.75a.75.75 0 000 1.5H2v1.25c0 .966.784 1.75 1.75 1.75H5v1.25a.75.75 0 001.5 0V14h3v1.25a.75.75 0 001.5 0V14h1.25A1.75 1.75 0 0014 12.25V11h1.25a.75.75 0 000-1.5H14v-3h1.25a.75.75 0 000-1.5H14V3.75A1.75 1.75 0 0012.25 2H11V.75a.75.75 0 00-1.5 0V2h-3V.75zm5.75 11.75h-8.5a.25.25 0 01-.25-.25v-8.5a.25.25 0 01.25-.25h8.5a.25.25 0 01.25.25v8.5a.25.25 0 01-.25.25zM5.75 5a.75.75 0 00-.75.75v4.5c0 .414.336.75.75.75h4.5a.75.75 0 00.75-.75v-4.5a.75.75 0 00-.75-.75h-4.5zm.75 4.5v-3h3v3h-3z"
     id="path38"
     style="fill:#ffffff" />
</svg>
