<?xml version="1.0" encoding="UTF-8" standalone="no"?>
<svg
   xmlns:dc="http://purl.org/dc/elements/1.1/"
   xmlns:cc="http://creativecommons.org/ns#"
   xmlns:rdf="http://www.w3.org/1999/02/22-rdf-syntax-ns#"
   xmlns:svg="http://www.w3.org/2000/svg"
   xmlns="http://www.w3.org/2000/svg"
   xmlns:sodipodi="http://sodipodi.sourceforge.net/DTD/sodipodi-0.dtd"
   xmlns:inkscape="http://www.inkscape.org/namespaces/inkscape"
   viewBox="0 0 273.5 222.3"
   class="octicon"
   version="1.1"
   id="svg80"
   sodipodi:docname="Twitter_neg.svg"
   inkscape:version="1.0.2 (e86c870879, 2021-01-15, custom)">
  <metadata
     id="metadata86">
    <rdf:RDF>
      <cc:Work
         rdf:about="">
        <dc:format>image/svg+xml</dc:format>
        <dc:type
           rdf:resource="http://purl.org/dc/dcmitype/StillImage" />
        <dc:title></dc:title>
      </cc:Work>
    </rdf:RDF>
  </metadata>
  <defs
     id="defs84" />
  <sodipodi:namedview
     pagecolor="#ffffff"
     bordercolor="#666666"
     borderopacity="1"
     objecttolerance="10"
     gridtolerance="10"
     guidetolerance="10"
     inkscape:pageopacity="0"
     inkscape:pageshadow="2"
     inkscape:window-width="1128"
     inkscape:window-height="848"
     id="namedview82"
     showgrid="false"
     inkscape:zoom="2.6000899"
     inkscape:cx="136.75"
     inkscape:cy="111.15"
     inkscape:window-x="1871"
     inkscape:window-y="103"
     inkscape:window-maximized="0"
     inkscape:current-layer="svg80" />
  <path
     d="M273.5 26.3a109.77 109.77 0 0 1-32.2 8.8 56.07 56.07 0 0 0 24.7-31 113.39 113.39 0 0 1-35.7 13.6 56.1 56.1 0 0 0-97 38.4 54 54 0 0 0 1.5 12.8A159.68 159.68 0 0 1 19.1 10.3a56.12 56.12 0 0 0 17.4 74.9 56.06 56.06 0 0 1-25.4-7v.7a56.11 56.11 0 0 0 45 55 55.65 55.65 0 0 1-14.8 2 62.39 62.39 0 0 1-10.6-1 56.24 56.24 0 0 0 52.4 39 112.87 112.87 0 0 1-69.7 24 119 119 0 0 1-13.4-.8 158.83 158.83 0 0 0 86 25.2c103.2 0 159.6-85.5 159.6-159.6 0-2.4-.1-4.9-.2-7.3a114.25 114.25 0 0 0 28.1-29.1"
     fill="currentColor"
     id="path78"
     style="fill:#ffffff" />
</svg>
